<svg xmlns="http://www.w3.org/2000/svg" viewBox="0 0 300 80">
  <defs>
    <linearGradient id="sailGradient" x1="0%" y1="0%" x2="100%" y2="100%">
      <stop offset="0%" style="stop-color:#FFAB00"/>
      <stop offset="100%" style="stop-color:#FF8C00"/>
    </linearGradient>
    <linearGradient id="boatGradient" x1="0%" y1="0%" x2="100%" y2="0%">
      <stop offset="0%" style="stop-color:#25D366"/>
      <stop offset="100%" style="stop-color:#128C7E"/>
    </linearGradient>
  </defs>
  <g transform="translate(5, 5)">
    <path d="M0 65 Q15 55 35 65 L35 70 Q15 60 0 70 Z" fill="url(#boatGradient)"/>
    <path d="M35 40 L35 65 L55 65 L55 40 Q45 45 35 40" fill="#1a1a2e"/>
    <path d="M35 40 L35 15 L15 40 Z" fill="url(#sailGradient)"/>
    <path d="M36 40 L36 18 L55 40 Z" fill="#FFAB00" opacity="0.7"/>
    <line x1="35" y1="10" x2="35" y2="42" stroke="#1a1a2e" stroke-width="2"/>
    <path d="M-5 70 Q10 60 35 70 L35 75 Q10 65 -5 75 Z" fill="#25D366" opacity="0.6"/>
    <circle cx="15" cy="72" r="2" fill="#25D366"/>
    <circle cx="30" cy="73" r="2" fill="#25D366"/>
  </g>
  <text x="70" y="38" font-family="Playfair Display, serif" font-size="26" font-weight="bold" fill="#1a1a2e">Komodo Sailing</text>
  <text x="70" y="58" font-family="Nunito Sans, sans-serif" font-size="14" fill="#FFAB00" font-weight="600" letter-spacing="3">ADVENTURE</text>
</svg>
